{"title":"WWE.Monday.Night.Raw.2011.02.14.WS.PDTV.XviD-SATHACK","uid":6175393,"size":1004111672,"categoryP":"video","categoryS":"tv_shows","magnet":"?xt=urn:btih:4c4a5906719d410025a11771905b6221a81dd675&amp;dn=WWE.Monday.Night.Raw.2011.02.14.WS.PDTV.XviD-SATHACK&amp;tr=udp%3A%2F%2Ftracker.openbittorrent.com%3A80&amp;tr=udp%3A%2F%2Fopen.demonii.com%3A1337&amp;tr=udp%3A%2F%2Ftracker.coppersurfer.tk%3A6969&amp;tr=udp%3A%2F%2Fexodus.desync.com%3A6969","seeders":0,"leechers":1,"uploader":"SAFCukO09","files":3,"time":1297754463,"description":"Format                           : AVI\nFormat/Info                      : Audio Video Interleave\nFile size                        : 958 MiB\nDuration                         : 1h 41mn\nOverall bit rate                 : 1 325 Kbps\nWriting library                  : MPlayer\n\nVideo\nID                               : 0\nFormat                           : MPEG-4 Visual\nFormat profile                   : Simple@L0\nFormat settings, BVOP            : No\nFormat settings, QPel            : No\nFormat settings, GMC             : No warppoints\nFormat settings, Matrix          : Default (H.263)\nCodec ID                         : DX50\nCodec ID/Hint                    : DivX 5\nDuration                         : 1h 41mn\nBit rate                         : 1 136 Kbps\nWidth                            : 640 pixels\nHeight                           : 352 pixels\nDisplay aspect ratio             : 16:9\nFrame rate                       : 25.000 fps\nColor space                      : YUV\nChroma subsampling               : 4:2:0\nBit depth                        : 8 bits\nScan type                        : Progressive\nBits/(Pixel*Frame)               : 0.202\nStream size                      : 821 MiB (86%)\nWriting library                  : XviD 1.0.3 (UTC 2004-12-20)\n\nAudio\nID                               : 1\nFormat                           : MPEG Audio\nFormat version                   : Version 1\nFormat profile                   : Layer 3\nMode                             : Joint stereo\nMode extension                   : MS Stereo\nCodec ID                         : 55\nCodec ID/Hint                    : MP3\nDuration                         : 1h 41mn\nBit rate mode                    : Constant\nBit rate                         : 128 Kbps\nChannel(s)                       : 2 channels\nSampling rate                    : 48.0 KHz\nStream size                      : 92.5 MiB (10%)\nAlignment                        : Split accross interleaves\n\n","torrent":{"xt":"urn:btih:4c4a5906719d410025a11771905b6221a81dd675","amp;dn":"WWE.Monday.Night.Raw.2011.02.14.WS.PDTV.XviD-SATHACK","amp;tr":["udp%3A%2F%2Ftracker.openbittorrent.com%3A80","udp%3A%2F%2Fopen.demonii.com%3A1337","udp%3A%2F%2Ftracker.coppersurfer.tk%3A6969","udp%3A%2F%2Fexodus.desync.com%3A6969"],"infoHash":"4c4a5906719d410025a11771905b6221a81dd675","infoHashBuffer":{"type":"Buffer","data":[76,74,89,6,113,157,65,0,37,161,23,113,144,91,98,33,168,29,214,117]},"announce":[],"urlList":[]}}